<svg xmlns="http://www.w3.org/2000/svg" width="24" height="24" viewBox="0 0 24 24" fill="none" stroke="currentColor" stroke-width="1.5" stroke-linecap="round" stroke-linejoin="round">
  <path d="M12 22s-2-2-4-4c-2-2-4-2-4-4s2-2 4-4s4-2 4-4s2-2 4-4s4-2 4-4" />
  <path d="M12 22s2-2 4-4c2-2 4-2 4-4s-2-2-4-4s-4-2-4-4s-2-2-4-4" />
  <path d="M12 22s2-2 4-4c2-2 4-2 4-4s-2-2-4-4s-4-2-4-4s-2-2-4-4s-4-2-4-4" />
  <path d="M12 22s-2-2-4-4c-2-2-4-2-4-4s2-2 4-4s4-2 4-4s2-2 4-4s4-2 4-4" />
  <path d="M12 22s-2-2-4-4c-2-2-4-2-4-4s2-2 4-4s4-2 4-4s2-2 4-4s4-2 4-4" />
  <path d="M12 22s2-2 4-4c2-2 4-2 4-4s-2-2-4-4s-4-2-4-4s-2-2-4-4s-4-2-4-4" />
</svg>